<?xml version="1.0" encoding="utf-8"?>
<!-- Generator: Adobe Illustrator 19.1.0, SVG Export Plug-In . SVG Version: 6.00 Build 0)  -->
<svg version="1.1" id="Ebene_1" xmlns="http://www.w3.org/2000/svg" xmlns:xlink="http://www.w3.org/1999/xlink" x="0px" y="0px"
	 viewBox="0 0 493 493" style="enable-background:new 0 0 493 493;" xml:space="preserve">
<style type="text/css">
	.st0{fill:#3C4646;}
</style>
<g>
	<path class="st0" d="M263.4,492.8H263V315.1c0-17.3-3.8-30-11.4-38.1c-0.9-1-1.9-1.8-2.9-2.7c-7.7-6-19.1-9.1-34.2-9.1
		c-14,0-25.4,3.7-34.2,11.2c-8.8,7.5-15,17.3-18.6,29.4l0.3,187.1h101.5V492.8z"/>
	<path class="st0" d="M392.1,333.9l98.4,139.5c1.6-3.8,2.5-7.9,2.5-12.2V220.7L392.1,333.9z"/>
	<path class="st0" d="M4.9,240.1l1.9-2c18-15.7,40.9-23.6,68.8-23.6c22.9,0,41.3,5.5,55.1,16.5c8.3,6.5,14.9,14.8,20,25.2
		c19.8-27.8,47.7-41.7,83.7-41.7c30.1,0,52.6,8.3,67.3,25c14.7,16.7,22.3,41.2,22.6,73.7v12.4l0.9,3.4l19.2-24l75.5-85.1H493V31.8
		C493,14.3,478.7,0,461.2,0H31.8C14.3,0,0,14.3,0,31.8v213.8C1.9,243.5,2.8,242,4.9,240.1z"/>
	<path class="st0" d="M100.6,492.8h-0.5V313.1c-0.5-17.9-5.8-30.9-16-38.8c-8-6-18.9-9.1-32.8-9.1c-23.6,0-40.9,10.1-51.4,28.5
		v167.5C0,478.7,14.3,493,31.8,493h68.8V492.8z"/>
	<polygon class="st0" points="324.8,398.7 324.8,493 433.3,493 352.4,376 	"/>
</g>
<g>
</g>
<g>
</g>
<g>
</g>
<g>
</g>
<g>
</g>
<g>
</g>
<g>
</g>
<g>
</g>
<g>
</g>
<g>
</g>
<g>
</g>
<g>
</g>
<g>
</g>
<g>
</g>
<g>
</g>
</svg>
